<svg id="NB" xmlns="http://www.w3.org/2000/svg" xmlns:xlink="http://www.w3.org/1999/xlink" viewBox="0 0 1548.1 928.51"><defs><style>.cls-1{fill:none;}.cls-2{clip-path:url(#clip-path);}.cls-3{font-size:342.06px;font-family:neo-latina, neo latina;}.cls-3,.cls-8{fill:#fff;}.cls-4{letter-spacing:-0.03em;}.cls-5{letter-spacing:-0.05em;}.cls-6{letter-spacing:-0.05em;}.cls-7{letter-spacing:-0.05em;}.cls-9{clip-path:url(#clip-path-2);}.cls-10{fill:url(#Dégradé_sans_nom_6);}.cls-11{letter-spacing:-0.05em;}</style><clipPath id="clip-path" transform="translate(28.44 153.51)"><rect class="cls-1" x="-28.44" y="19.87" width="1548.09" height="680.23"/></clipPath><clipPath id="clip-path-2" transform="translate(28.44 153.51)"><path class="cls-1" d="M984.14,103.8h41.43V355.89H773l.49,51.86h269.38a41,41,0,0,0,41.35-41.33V103.8h40.26L1054.06,20Z"/></clipPath><linearGradient id="Dégradé_sans_nom_6" x1="-295.79" y1="1934.65" x2="-283.12" y2="1934.65" gradientTransform="matrix(-17.37, 0, 0, 17.37, -4058.66, -33396.41)" gradientUnits="userSpaceOnUse"><stop offset="0" stop-color="#25534f"/><stop offset="0.01" stop-color="#25534f"/><stop offset="1" stop-color="#fff"/></linearGradient></defs><g class="cls-2"><text class="cls-3" transform="translate(56.6 853.6)"><tspan class="cls-4">R</tspan><tspan class="cls-5" x="223.7" y="0">app</tspan><tspan class="cls-6" x="735.41" y="0">o</tspan><tspan class="cls-7" x="927.3" y="0">rt</tspan><tspan x="1240.96" y="0">s</tspan></text><path class="cls-8" d="M765.25,407.76H783M514.63,216.82a12.88,12.88,0,0,0,13.53,13.53H747.67V393.48a13.68,13.68,0,0,0,4.18,10.15,13.21,13.21,0,0,0,9.53,4.13h29.7a14,14,0,0,0,10.27-4.13,13.63,13.63,0,0,0,4.2-10.15V34.14A13.69,13.69,0,0,0,801.35,24a14.11,14.11,0,0,0-10.27-4.13h-29.7A13.33,13.33,0,0,0,751.85,24a13.75,13.75,0,0,0-4.18,10.15V178.48H528.16a12.59,12.59,0,0,0-9.77,4.14,14.53,14.53,0,0,0-3.76,10.15ZM412.39,393.48a13.87,13.87,0,0,0,4.08,10.15,13.53,13.53,0,0,0,10,4.13h31.17a12.37,12.37,0,0,0,9.65-4.13,14.67,14.67,0,0,0,3.7-10.15V34.14A14.74,14.74,0,0,0,467.32,24a12.47,12.47,0,0,0-9.65-4.13H426.5a13.65,13.65,0,0,0-10,4.13,13.93,13.93,0,0,0-4.08,10.15Z" transform="translate(28.44 153.51)"/><path class="cls-8" d="M1158.07,394.24a13.12,13.12,0,0,0,3.77,9.77,13.26,13.26,0,0,0,9.79,3.76h234.28a109.4,109.4,0,0,0,44.06-9,115.28,115.28,0,0,0,60.65-60.52,108.5,108.5,0,0,0,9-44A100.4,100.4,0,0,0,1505.6,242a125.24,125.24,0,0,0-36.85-39.46A115.19,115.19,0,0,0,1497.34,168a91.32,91.32,0,0,0,11.05-44.36,100.56,100.56,0,0,0-8.29-40.21,102.34,102.34,0,0,0-22.61-33.08A110.54,110.54,0,0,0,1444,28.13a101,101,0,0,0-40.31-8.26h-232a12.62,12.62,0,0,0-9.79,4.13,14.46,14.46,0,0,0-3.77,10.15Zm240-322.5q24,0,40.09,15.78a51.72,51.72,0,0,1,16.12,38.33,54.68,54.68,0,0,1-14.66,38Q1424.93,180,1399.39,180H1271.6a12.88,12.88,0,0,0-13.54,13.53v22.56a12.87,12.87,0,0,0,13.54,13.52h134.55q28.56,0,44,19.17a68.25,68.25,0,0,1,15.41,44q0,26.33-18.36,44.73t-46.83,18.41H1216V71.74Z" transform="translate(28.44 153.51)"/></g><g class="cls-9"><rect class="cls-10" x="689.22" y="-47.69" width="519" height="523.11" transform="translate(116.06 819.39) rotate(-40.4)"/></g><g class="cls-2"><text class="cls-3" transform="translate(0 561.27)"><tspan class="cls-11">L</tspan><tspan x="184.02" y="0">e</tspan></text></g></svg>