<svg id="NB" xmlns="http://www.w3.org/2000/svg" xmlns:xlink="http://www.w3.org/1999/xlink" viewBox="0 0 1542.27 929.13"><defs><style>.cls-1{fill:none;}.cls-2{clip-path:url(#clip-path);}.cls-3{font-size:340.77px;font-family:neo-latina, neo latina;}.cls-3,.cls-9{fill:#fff;}.cls-4{letter-spacing:-0.05em;}.cls-5{letter-spacing:-0.05em;}.cls-6{letter-spacing:-0.05em;}.cls-7{letter-spacing:-0.05em;}.cls-8{letter-spacing:-0.05em;}.cls-10{clip-path:url(#clip-path-2);}.cls-11{fill:url(#Dégradé_sans_nom_8);}.cls-12{letter-spacing:-0.05em;}</style><clipPath id="clip-path" transform="translate(24.79 152.33)"><rect class="cls-1" x="-24.79" y="20.4" width="1542.27" height="681.77"/></clipPath><clipPath id="clip-path-2" transform="translate(24.79 152.33)"><path class="cls-1" d="M984,104h41.28V355.17H773.61l.49,51.67h268.37a40.91,40.91,0,0,0,41.19-41.19V104h40.11L1053.63,20.5Z"/></clipPath><linearGradient id="Dégradé_sans_nom_8" x1="-295.75" y1="1934.66" x2="-283.13" y2="1934.66" gradientTransform="matrix(-17.37, 0, 0, 17.37, -4058.59, -33396.69)" gradientUnits="userSpaceOnUse"><stop offset="0" stop-color="#d98317"/><stop offset="0.01" stop-color="#d98317"/><stop offset="1" stop-color="#fff"/></linearGradient></defs><g class="cls-2"><text class="cls-3" transform="translate(50.58 854.5)"><tspan class="cls-4">Re</tspan><tspan class="cls-5" x="378.59" y="0">s</tspan><tspan class="cls-6" x="556.81" y="0">o</tspan><tspan class="cls-7" x="748.32" y="0">u</tspan><tspan class="cls-8" x="932.33" y="0">rc</tspan><tspan x="1264.58" y="0">e</tspan></text><path class="cls-9" d="M765.91,406.84h17.71M516.23,216.61a12.83,12.83,0,0,0,13.48,13.48H748.39V392.61a13.64,13.64,0,0,0,4.17,10.11,13.15,13.15,0,0,0,9.49,4.12h29.59a14,14,0,0,0,10.24-4.12,13.61,13.61,0,0,0,4.18-10.11v-358a13.64,13.64,0,0,0-4.18-10.11,14.07,14.07,0,0,0-10.24-4.12H762.05a13.23,13.23,0,0,0-9.49,4.12,13.67,13.67,0,0,0-4.17,10.11V178.42H529.71a12.52,12.52,0,0,0-9.73,4.12,14.48,14.48,0,0,0-3.75,10.11Zm-101.85,176a13.82,13.82,0,0,0,4.06,10.11,13.49,13.49,0,0,0,10,4.12h31.05a12.33,12.33,0,0,0,9.62-4.12,14.63,14.63,0,0,0,3.69-10.11v-358a14.66,14.66,0,0,0-3.69-10.11,12.4,12.4,0,0,0-9.62-4.12H428.43a13.57,13.57,0,0,0-10,4.12,13.85,13.85,0,0,0-4.06,10.11Z" transform="translate(24.79 152.33)"/><path class="cls-9" d="M1157.25,393.36a12.86,12.86,0,0,0,13.51,13.49h233.4a108.94,108.94,0,0,0,43.89-9,114.9,114.9,0,0,0,60.42-60.29,108.05,108.05,0,0,0,9-43.82,100.08,100.08,0,0,0-14-52.05,124.63,124.63,0,0,0-36.71-39.31,114.84,114.84,0,0,0,28.48-34.45,91,91,0,0,0,11-44.19A100.16,100.16,0,0,0,1498,83.69a101.58,101.58,0,0,0-22.52-33,109.85,109.85,0,0,0-33.39-22.09,100.52,100.52,0,0,0-40.15-8.23H1170.76a12.61,12.61,0,0,0-9.76,4.11,14.48,14.48,0,0,0-3.75,10.12ZM1396.33,72.08q23.89,0,39.94,15.73A51.44,51.44,0,0,1,1452.33,126a54.46,54.46,0,0,1-14.6,37.82q-14.62,16.13-40.07,16.11H1270.35a12.83,12.83,0,0,0-13.48,13.48v22.47a12.8,12.8,0,0,0,13.48,13.47H1404.4q28.44,0,43.8,19.1a68,68,0,0,1,15.35,43.82q0,26.22-18.29,44.56t-46.65,18.34H1214.92V72.08Z" transform="translate(24.79 152.33)"/></g><g class="cls-10"><rect class="cls-11" x="690.16" y="-46.91" width="517.05" height="521.15" transform="translate(112.53 818.14) rotate(-40.4)"/></g><g class="cls-2"><text class="cls-3" transform="translate(0 559.18)"><tspan class="cls-12">L</tspan><tspan x="183.33" y="0">e</tspan></text></g></svg>