<svg id="NB" xmlns="http://www.w3.org/2000/svg" xmlns:xlink="http://www.w3.org/1999/xlink" viewBox="0 0 1542.27 925.02"><defs><style>.cls-1{fill:none;}.cls-2{clip-path:url(#clip-path);}.cls-3{font-size:340.77px;font-family:neo-latina, neo latina;}.cls-3,.cls-8{fill:#fff;}.cls-4{letter-spacing:-0.05em;}.cls-5{letter-spacing:-0.05em;}.cls-6{letter-spacing:-0.05em;}.cls-7{letter-spacing:-0.05em;}.cls-9{clip-path:url(#clip-path-2);}.cls-10{fill:url(#Dégradé_sans_nom_11);}</style><clipPath id="clip-path" transform="translate(27.96 152.25)"><rect class="cls-1" x="-27.97" y="20.48" width="1542.27" height="677.67"/></clipPath><clipPath id="clip-path-2" transform="translate(27.96 152.25)"><path class="cls-1" d="M980.8,104.1h41.28V355.24H770.44l.49,51.66H1039.3a40.87,40.87,0,0,0,41.19-41.17V104.1h40.11l-70.14-83.52Z"/></clipPath><linearGradient id="Dégradé_sans_nom_11" x1="-295.62" y1="1934.53" x2="-283" y2="1934.53" gradientTransform="matrix(-17.37, 0, 0, 17.37, -4059.5, -33394.37)" gradientUnits="userSpaceOnUse"><stop offset="0" stop-color="#a4a5a5"/><stop offset="0.01" stop-color="#a4a5a5"/><stop offset="1" stop-color="#fff"/></linearGradient></defs><g class="cls-2"><text class="cls-3" transform="translate(178.89 850.39)"><tspan class="cls-4">G</tspan><tspan class="cls-5" x="233.76" y="0">es</tspan><tspan class="cls-6" x="573.17" y="0">ti</tspan><tspan class="cls-7" x="784.09" y="0">o</tspan><tspan x="975.26" y="0">n</tspan></text><path class="cls-8" d="M762.74,406.91h17.71M513.06,216.68a12.84,12.84,0,0,0,13.48,13.49H745.22V392.69a13.64,13.64,0,0,0,4.17,10.11,13.14,13.14,0,0,0,9.49,4.11h29.59a14,14,0,0,0,10.24-4.11,13.61,13.61,0,0,0,4.18-10.11V34.7a13.64,13.64,0,0,0-4.18-10.11,14.07,14.07,0,0,0-10.24-4.12H758.88a13.23,13.23,0,0,0-9.49,4.12,13.67,13.67,0,0,0-4.17,10.11V178.5H526.54a12.51,12.51,0,0,0-9.73,4.11,14.5,14.5,0,0,0-3.75,10.11Zm-101.85,176a13.82,13.82,0,0,0,4.06,10.11,13.48,13.48,0,0,0,10,4.11h31.05a12.32,12.32,0,0,0,9.62-4.11,14.63,14.63,0,0,0,3.69-10.11V34.7a14.66,14.66,0,0,0-3.69-10.11,12.4,12.4,0,0,0-9.62-4.12H425.26a13.57,13.57,0,0,0-10,4.12,13.85,13.85,0,0,0-4.06,10.11Z" transform="translate(27.96 152.25)"/><path class="cls-8" d="M1154.08,393.44a12.86,12.86,0,0,0,13.51,13.48H1401a108.82,108.82,0,0,0,43.9-9,114.92,114.92,0,0,0,60.41-60.29,108,108,0,0,0,9-43.82,99.93,99.93,0,0,0-14-52,124.66,124.66,0,0,0-36.71-39.32A114.57,114.57,0,0,0,1492.07,168a90.88,90.88,0,0,0,11-44.19,100,100,0,0,0-8.26-40.06,101.79,101.79,0,0,0-22.52-33,110,110,0,0,0-33.39-22.09,100.52,100.52,0,0,0-40.15-8.23H1167.59a12.62,12.62,0,0,0-9.76,4.12,14.44,14.44,0,0,0-3.75,10.11ZM1393.17,72.15q23.89,0,39.94,15.73a51.49,51.49,0,0,1,16.05,38.19,54.47,54.47,0,0,1-14.6,37.82Q1419.94,180,1394.49,180H1267.18a12.83,12.83,0,0,0-13.48,13.49V216a12.81,12.81,0,0,0,13.48,13.47h134q28.44,0,43.81,19.1a68.05,68.05,0,0,1,15.35,43.81q0,26.24-18.29,44.57t-46.66,18.34H1211.75V72.15Z" transform="translate(27.96 152.25)"/></g><g class="cls-9"><rect class="cls-10" x="687" y="-46.83" width="517.04" height="521.15" transform="translate(114.9 816.03) rotate(-40.4)"/></g><g class="cls-2"><text class="cls-3" transform="translate(0 559.17)"><tspan class="cls-7">L</tspan><tspan x="183.33" y="0">e</tspan></text></g></svg>