<svg id="NB" xmlns="http://www.w3.org/2000/svg" xmlns:xlink="http://www.w3.org/1999/xlink" viewBox="0 0 1527.17 915.96"><defs><style>.cls-1{fill:none;}.cls-2{clip-path:url(#clip-path);}.cls-3{font-size:337.43px;font-family:neo-latina, neo latina;}.cls-3,.cls-7{fill:#fff;}.cls-4{letter-spacing:-0.05em;}.cls-5{letter-spacing:-0.05em;}.cls-6{letter-spacing:-0.02em;}.cls-8{clip-path:url(#clip-path-2);}.cls-9{fill:url(#Dégradé_sans_nom_6);}.cls-10{letter-spacing:-0.05em;}</style><clipPath id="clip-path" transform="translate(20.67 152.17)"><rect class="cls-1" x="-20.67" y="18.86" width="1527.16" height="671.03"/></clipPath><clipPath id="clip-path-2" transform="translate(20.67 152.17)"><path class="cls-1" d="M978.21,101.66h40.88V350.33H769.91l.49,51.17h265.74a40.5,40.5,0,0,0,40.79-40.78V101.66h39.71L1047.19,19Z"/></clipPath><linearGradient id="Dégradé_sans_nom_6" x1="-295.58" y1="1934.29" x2="-283.08" y2="1934.29" gradientTransform="matrix(-17.37, 0, 0, 17.37, -4062.32, -33393.75)" gradientUnits="userSpaceOnUse"><stop offset="0" stop-color="#c8301b"/><stop offset="0.01" stop-color="#c8301b"/><stop offset="1" stop-color="#fff"/></linearGradient></defs><g class="cls-2"><text class="cls-3" transform="translate(109.15 842.06)"><tspan class="cls-4">S</tspan><tspan class="cls-5" x="220.67" y="0">e</tspan><tspan class="cls-6" x="380.28" y="0">t</tspan><tspan class="cls-4" x="534.14" y="0">ting</tspan><tspan x="1117.54" y="0">s</tspan></text><path class="cls-7" d="M762.29,401.51h17.54M515.05,213.14a12.72,12.72,0,0,0,13.35,13.35H744.94V387.42a13.51,13.51,0,0,0,4.13,10,13,13,0,0,0,9.4,4.08h29.3a13.8,13.8,0,0,0,10.13-4.08,13.45,13.45,0,0,0,4.14-10V32.94a13.48,13.48,0,0,0-4.14-10,13.88,13.88,0,0,0-10.13-4.08h-29.3a13.07,13.07,0,0,0-9.4,4.08,13.54,13.54,0,0,0-4.13,10V175.33H528.4a12.4,12.4,0,0,0-9.63,4.07,14.36,14.36,0,0,0-3.72,10ZM414.2,387.42a13.66,13.66,0,0,0,4,10,13.29,13.29,0,0,0,9.88,4.08h30.75a12.2,12.2,0,0,0,9.53-4.08,14.5,14.5,0,0,0,3.65-10V32.94a14.54,14.54,0,0,0-3.65-10,12.27,12.27,0,0,0-9.53-4.08H428.11a13.36,13.36,0,0,0-9.88,4.08,13.69,13.69,0,0,0-4,10Z" transform="translate(20.67 152.17)"/><path class="cls-7" d="M1149.8,388.16a12.72,12.72,0,0,0,13.37,13.35h231.12a107.73,107.73,0,0,0,43.46-8.9,113.77,113.77,0,0,0,59.82-59.7,107,107,0,0,0,8.93-43.39A99.05,99.05,0,0,0,1492.62,238a123.33,123.33,0,0,0-36.35-38.93,113.53,113.53,0,0,0,28.2-34.11,90,90,0,0,0,10.9-43.76,99.11,99.11,0,0,0-8.17-39.67,100.79,100.79,0,0,0-22.3-32.63A108.94,108.94,0,0,0,1431.84,27a99.53,99.53,0,0,0-39.77-8.15h-228.9a12.45,12.45,0,0,0-9.66,4.08,14.27,14.27,0,0,0-3.71,10ZM1386.54,70q23.65,0,39.55,15.58a51,51,0,0,1,15.9,37.81,53.92,53.92,0,0,1-14.47,37.45q-14.48,16-39.67,15.95H1261.79a12.71,12.71,0,0,0-13.35,13.35v22.25a12.69,12.69,0,0,0,13.35,13.34h132.73q28.17,0,43.38,18.91a67.41,67.41,0,0,1,15.2,43.39q0,26-18.11,44.12t-46.2,18.17H1206.9V70Z" transform="translate(20.67 152.17)"/></g><g class="cls-8"><rect class="cls-9" x="687.29" y="-47.79" width="511.98" height="516.04" transform="matrix(0.76, -0.65, 0.65, 0.76, 109.35, 813.66)"/></g><g class="cls-2"><text class="cls-3" transform="translate(0 553.68)"><tspan class="cls-10">L</tspan><tspan x="181.54" y="0">e</tspan></text></g></svg>