<svg id="Calque_1" data-name="Calque 1" xmlns="http://www.w3.org/2000/svg" xmlns:xlink="http://www.w3.org/1999/xlink" viewBox="0 0 1541.3 924.42"><defs><style>.cls-1{fill:none;}.cls-2{clip-path:url(#clip-path);}.cls-3{font-size:340.55px;fill:#191915;font-family:neo-latina, neo latina;}.cls-4{letter-spacing:-0.05em;}.cls-5{letter-spacing:-0.05em;}.cls-6{clip-path:url(#clip-path-2);}.cls-7{fill:url(#Dégradé_sans_nom_2);}</style><clipPath id="clip-path" transform="translate(25.49 148.97)"><rect class="cls-1" x="-25.49" y="23.65" width="1541.29" height="677.24"/></clipPath><clipPath id="clip-path-2" transform="translate(25.49 148.97)"><path class="cls-1" d="M982.63,107.22h41.26v251H772.4l.5,51.64h268.2a40.85,40.85,0,0,0,41.16-41.15V107.22h40.08l-70.09-83.47Z"/></clipPath><linearGradient id="Dégradé_sans_nom_2" x1="-295.59" y1="1934.73" x2="-282.97" y2="1934.73" gradientTransform="matrix(-17.37, 0, 0, 17.37, -4057.08, -33394.84)" gradientUnits="userSpaceOnUse"><stop offset="0" stop-color="#a4a5a5"/><stop offset="0.01" stop-color="#a4a5a5"/><stop offset="0.99" stop-color="#191915"/><stop offset="1" stop-color="#191915"/></linearGradient></defs><g class="cls-2"><text class="cls-3" transform="translate(333.9 849.84)"><tspan class="cls-4">CA</tspan><tspan class="cls-5" x="419.21" y="0">F</tspan><tspan x="597.32" y="0">M</tspan></text><path d="M764.71,409.84h17.7M515.19,219.73a12.83,12.83,0,0,0,13.47,13.48H747.2V395.62a13.64,13.64,0,0,0,4.17,10.11,13.12,13.12,0,0,0,9.48,4.11h29.58a14,14,0,0,0,10.23-4.11,13.64,13.64,0,0,0,4.17-10.11V37.86a13.67,13.67,0,0,0-4.17-10.1,14.06,14.06,0,0,0-10.23-4.12H760.85a13.21,13.21,0,0,0-9.48,4.12,13.67,13.67,0,0,0-4.17,10.1V181.57H528.66a12.53,12.53,0,0,0-9.73,4.11,14.52,14.52,0,0,0-3.74,10.11ZM413.4,395.62a13.78,13.78,0,0,0,4.07,10.11,13.44,13.44,0,0,0,10,4.11h31a12.3,12.3,0,0,0,9.61-4.11,14.63,14.63,0,0,0,3.69-10.11V37.86a14.66,14.66,0,0,0-3.69-10.1,12.37,12.37,0,0,0-9.61-4.12h-31a13.52,13.52,0,0,0-10,4.12,13.81,13.81,0,0,0-4.07,10.1Z" transform="translate(25.49 148.97)"/><path d="M1155.81,396.37a12.84,12.84,0,0,0,13.5,13.48h233.25a108.79,108.79,0,0,0,43.86-9,114.75,114.75,0,0,0,60.38-60.25,107.88,107.88,0,0,0,9-43.79,100,100,0,0,0-14-52,124.61,124.61,0,0,0-36.69-39.29,114.57,114.57,0,0,0,28.46-34.43,90.88,90.88,0,0,0,11-44.17,100,100,0,0,0-8.25-40A101.62,101.62,0,0,0,1473.82,54a109.8,109.8,0,0,0-33.36-22.08,100.47,100.47,0,0,0-40.14-8.23h-231a12.62,12.62,0,0,0-9.76,4.12,14.4,14.4,0,0,0-3.74,10.1ZM1394.74,75.29q23.88,0,39.91,15.72a51.44,51.44,0,0,1,16,38.16,54.44,54.44,0,0,1-14.6,37.8q-14.61,16.1-40,16.1H1268.83a12.81,12.81,0,0,0-13.47,13.47V219a12.81,12.81,0,0,0,13.47,13.47h134q28.42,0,43.77,19.08a68,68,0,0,1,15.34,43.79q0,26.22-18.28,44.54T1397,358.2H1213.43V75.29Z" transform="translate(25.49 148.97)"/></g><g class="cls-6"><rect class="cls-7" x="689.01" y="-43.62" width="516.72" height="520.81" transform="translate(110.9 814.67) rotate(-40.4)"/></g><g class="cls-2"><text class="cls-3" transform="translate(0 558.8)"><tspan class="cls-5">L</tspan><tspan x="183.22" y="0">e</tspan></text></g></svg>