<svg id="Calque_1" data-name="Calque 1" xmlns="http://www.w3.org/2000/svg" xmlns:xlink="http://www.w3.org/1999/xlink" viewBox="0 0 1524.35 914.39"><defs><style>.cls-1{fill:none;}.cls-2{clip-path:url(#clip-path);}.cls-3,.cls-6{fill:#191915;}.cls-4{clip-path:url(#clip-path-2);}.cls-5{fill:url(#Dégradé_sans_nom_3);}.cls-6,.cls-8{font-size:336.81px;font-family:neo-latina, neo latina;}.cls-7{letter-spacing:-0.05em;}.cls-8{letter-spacing:-0.05em;}.cls-9{letter-spacing:0em;}</style><clipPath id="clip-path" transform="translate(11.56 147.22)"><rect class="cls-1" x="-11.57" y="23.5" width="1524.35" height="669.79"/></clipPath><clipPath id="clip-path-2" transform="translate(11.56 147.22)"><path class="cls-1" d="M985.47,106.15h40.8V354.37H777.56l.48,51.06h265.25a40.41,40.41,0,0,0,40.72-40.7V106.15h39.64L1054.32,23.6Z"/></clipPath><linearGradient id="Dégradé_sans_nom_3" x1="-295.73" y1="1934.75" x2="-283.25" y2="1934.75" gradientTransform="matrix(-17.37, 0, 0, 17.37, -4057.79, -33397.48)" gradientUnits="userSpaceOnUse"><stop offset="0" stop-color="#64a53e"/><stop offset="0.01" stop-color="#64a53e"/><stop offset="0.99" stop-color="#191915"/><stop offset="1" stop-color="#191915"/></linearGradient></defs><g class="cls-2"><path class="cls-3" d="M770,405.44h17.51m-264.29-188a12.68,12.68,0,0,0,13.32,13.33H752.63V391.38a13.44,13.44,0,0,0,4.12,10,13,13,0,0,0,9.38,4.07h29.25a13.82,13.82,0,0,0,10.12-4.07,13.45,13.45,0,0,0,4.13-10V37.56a13.52,13.52,0,0,0-4.13-10,13.86,13.86,0,0,0-10.12-4.07H766.13a13,13,0,0,0-9.38,4.07,13.51,13.51,0,0,0-4.12,10V179.68H536.49a12.39,12.39,0,0,0-9.62,4.07,14.32,14.32,0,0,0-3.7,10Zm-100.67,174a13.63,13.63,0,0,0,4,10,13.29,13.29,0,0,0,9.87,4.07h30.69a12.2,12.2,0,0,0,9.51-4.07,14.43,14.43,0,0,0,3.64-10V37.56a14.51,14.51,0,0,0-3.64-10,12.23,12.23,0,0,0-9.51-4.07H436.39a13.33,13.33,0,0,0-9.87,4.07,13.7,13.7,0,0,0-4,10Z" transform="translate(11.56 147.22)"/><path class="cls-3" d="M1156.74,392.12a12.92,12.92,0,0,0,3.71,9.62,13.05,13.05,0,0,0,9.64,3.71h230.69a107.67,107.67,0,0,0,43.38-8.88A113.61,113.61,0,0,0,1503.88,337a106.8,106.8,0,0,0,8.91-43.31,99,99,0,0,0-13.85-51.45,123.28,123.28,0,0,0-36.28-38.85,113.4,113.4,0,0,0,28.14-34.05,89.87,89.87,0,0,0,10.88-43.68,98.92,98.92,0,0,0-8.16-39.59,100.7,100.7,0,0,0-22.25-32.58,108.75,108.75,0,0,0-33-21.83,99.31,99.31,0,0,0-39.69-8.14H1170.09a12.45,12.45,0,0,0-9.64,4.07,14.28,14.28,0,0,0-3.71,10ZM1393.05,74.57q23.61,0,39.47,15.55a50.87,50.87,0,0,1,15.87,37.74A53.82,53.82,0,0,1,1434,165.24q-14.45,15.93-39.6,15.92H1268.53a12.69,12.69,0,0,0-13.33,13.33V216.7A12.66,12.66,0,0,0,1268.53,230H1401q28.11,0,43.29,18.88a67.23,67.23,0,0,1,15.18,43.3q0,25.94-18.08,44.05t-46.12,18.13H1213.74V74.57Z" transform="translate(11.56 147.22)"/></g><g class="cls-4"><rect class="cls-5" x="695.08" y="-43.03" width="511.04" height="515.09" transform="translate(99.21 814.48) rotate(-40.4)"/></g><g class="cls-2"><text class="cls-6" transform="translate(0 552.66)"><tspan class="cls-7">L</tspan><tspan x="181.2" y="0">e</tspan></text><text class="cls-8" transform="translate(507.57 840.64)">IO<tspan class="cls-9" x="333.1" y="0">T</tspan></text></g></svg>