<svg id="Calque_1" data-name="Calque 1" xmlns="http://www.w3.org/2000/svg" xmlns:xlink="http://www.w3.org/1999/xlink" viewBox="0 0 1905.75 919.36"><defs><style>.cls-1{fill:none;}.cls-2{clip-path:url(#clip-path);}.cls-11,.cls-3{font-size:337.19px;font-family:neo-latina, neo latina;}.cls-11,.cls-3,.cls-8{fill:#191915;}.cls-12,.cls-3{letter-spacing:-0.05em;}.cls-4{letter-spacing:-0.05em;}.cls-5{letter-spacing:-0.05em;}.cls-6{letter-spacing:-0.05em;}.cls-7{letter-spacing:0em;}.cls-9{clip-path:url(#clip-path-2);}.cls-10{fill:url(#Dégradé_sans_nom_3);}</style><clipPath id="clip-path" transform="translate(6.74 149.83)"><rect class="cls-1" x="-6.74" y="21.08" width="1904.07" height="674.61"/></clipPath><clipPath id="clip-path-2" transform="translate(6.74 149.83)"><path class="cls-1" d="M1180.43,103.82h40.84V352.33h-249l.49,51.13h265.56a40.5,40.5,0,0,0,40.76-40.76V103.82h39.68l-69.41-82.64Z"/></clipPath><linearGradient id="Dégradé_sans_nom_3" x1="-97.59" y1="1934.01" x2="-85.1" y2="1934.01" gradientTransform="matrix(-17.37, 0, 0, 17.37, -420.58, -33386.8)" gradientUnits="userSpaceOnUse"><stop offset="0" stop-color="#d98317"/><stop offset="0.01" stop-color="#d98317"/><stop offset="0.99" stop-color="#191915"/><stop offset="1" stop-color="#191915"/></linearGradient></defs><g class="cls-2"><text class="cls-3" transform="translate(0 845.52)">Bi<tspan class="cls-4" x="281.21" y="0">bl</tspan><tspan x="602.2" y="0">i</tspan><tspan class="cls-5" x="667.95" y="0">oth</tspan><tspan class="cls-6" x="1194.29" y="0">equ</tspan><tspan class="cls-7" x="1729.4" y="0">e</tspan></text><path d="M1240.65,515.33q-3-1.35-3-3.71l3-12.14c.9-2,2.24-3,4-3l67.44,17.88a3.92,3.92,0,0,1,2.7,4q-1.68,6.07-5.06,9.11a15,15,0,0,1-8.09,3.71,11.68,11.68,0,0,1-3.38-.34Z" transform="translate(6.74 149.83)"/><path class="cls-8" d="M964.66,403.46h17.53M717.6,215.23a12.69,12.69,0,0,0,13.34,13.34H947.32V389.38a13.54,13.54,0,0,0,4.12,10,13,13,0,0,0,9.4,4.07h29.28a13.83,13.83,0,0,0,10.13-4.07,13.47,13.47,0,0,0,4.13-10V35.16a13.5,13.5,0,0,0-4.13-10,13.92,13.92,0,0,0-10.13-4.08H960.84a13.14,13.14,0,0,0-9.4,4.08,13.57,13.57,0,0,0-4.12,10V177.45H730.94a12.4,12.4,0,0,0-9.63,4.07,14.36,14.36,0,0,0-3.71,10ZM616.82,389.38a13.69,13.69,0,0,0,4,10,13.33,13.33,0,0,0,9.88,4.07h30.73a12.21,12.21,0,0,0,9.52-4.07,14.5,14.5,0,0,0,3.65-10V35.16a14.53,14.53,0,0,0-3.65-10,12.28,12.28,0,0,0-9.52-4.08H630.72a13.42,13.42,0,0,0-9.88,4.08,13.71,13.71,0,0,0-4,10Z" transform="translate(6.74 149.83)"/><path class="cls-8" d="M1351.89,390.13a12.92,12.92,0,0,0,3.71,9.63,13.06,13.06,0,0,0,9.65,3.71h231a107.72,107.72,0,0,0,43.43-8.89,113.71,113.71,0,0,0,59.78-59.66,106.84,106.84,0,0,0,8.92-43.36,99,99,0,0,0-13.86-51.5,123.39,123.39,0,0,0-36.33-38.9,113.5,113.5,0,0,0,28.18-34.08,90,90,0,0,0,10.89-43.74,99.11,99.11,0,0,0-8.16-39.63,100.67,100.67,0,0,0-22.29-32.61,108.49,108.49,0,0,0-33-21.86A99.37,99.37,0,0,0,1594,21.09H1365.25a12.46,12.46,0,0,0-9.65,4.07,14.28,14.28,0,0,0-3.71,10ZM1588.45,72.22q23.65,0,39.53,15.56a51,51,0,0,1,15.89,37.79A53.9,53.9,0,0,1,1629.41,163q-14.46,15.94-39.64,15.94h-126a12.71,12.71,0,0,0-13.34,13.34V214.5a12.69,12.69,0,0,0,13.34,13.33h132.65q28.14,0,43.34,18.9A67.32,67.32,0,0,1,1655,290.09q0,25.95-18.1,44.09t-46.17,18.15H1409V72.22Z" transform="translate(6.74 149.83)"/></g><g class="cls-9"><rect class="cls-10" x="889.7" y="-45.52" width="511.63" height="515.69" transform="translate(142.29 942.89) rotate(-40.4)"/></g><text class="cls-11" transform="translate(189.01 553.29)"><tspan class="cls-12">L</tspan><tspan x="181.41" y="0">e</tspan></text></svg>