<svg id="Calque_1" data-name="Calque 1" xmlns="http://www.w3.org/2000/svg" xmlns:xlink="http://www.w3.org/1999/xlink" viewBox="0 0 1526.38 915.48"><defs><style>.cls-1{fill:none;}.cls-2{clip-path:url(#clip-path);}.cls-3{font-size:337.26px;font-family:neo-latina, neo latina;}.cls-3,.cls-6{fill:#191915;}.cls-4{letter-spacing:-0.05em;}.cls-5{letter-spacing:-0.08em;}.cls-7{clip-path:url(#clip-path-2);}.cls-8{fill:url(#Dégradé_sans_nom_3);}.cls-9{letter-spacing:-0.05em;}</style><clipPath id="clip-path" transform="translate(11.34 149.57)"><rect class="cls-1" x="-11.34" y="21.38" width="1526.37" height="670.68"/></clipPath><clipPath id="clip-path-2" transform="translate(11.34 149.57)"><path class="cls-1" d="M987,104.14h40.86V352.69H778.84l.48,51.13h265.61a40.45,40.45,0,0,0,40.76-40.75V104.14h39.7L1056,21.48Z"/></clipPath><linearGradient id="Dégradé_sans_nom_3" x1="-295.87" y1="1934.73" x2="-283.38" y2="1934.73" gradientTransform="matrix(-17.37, 0, 0, 17.37, -4058.64, -33398.9)" gradientUnits="userSpaceOnUse"><stop offset="0" stop-color="#fbec19"/><stop offset="0.01" stop-color="#fbec19"/><stop offset="0.99" stop-color="#191915"/><stop offset="1" stop-color="#191915"/></linearGradient></defs><g class="cls-2"><text class="cls-3" transform="translate(207.9 841.62)"><tspan class="cls-4">Con</tspan><tspan class="cls-5" x="592.21" y="0">t</tspan><tspan class="cls-4" x="724.07" y="0">ac</tspan><tspan x="1060.99" y="0">t</tspan></text><path class="cls-6" d="M771.22,403.83h17.53M524.11,215.56a12.71,12.71,0,0,0,13.34,13.35H753.88V389.75a13.5,13.5,0,0,0,4.12,10,13,13,0,0,0,9.4,4.07h29.28a13.85,13.85,0,0,0,10.14-4.07,13.47,13.47,0,0,0,4.13-10V35.46a13.51,13.51,0,0,0-4.13-10,13.9,13.9,0,0,0-10.14-4.08H767.4a13.08,13.08,0,0,0-9.4,4.08,13.54,13.54,0,0,0-4.12,10V177.77H537.45a12.4,12.4,0,0,0-9.63,4.07,14.37,14.37,0,0,0-3.71,10ZM423.31,389.75a13.69,13.69,0,0,0,4,10,13.35,13.35,0,0,0,9.89,4.07H468a12.21,12.21,0,0,0,9.52-4.07,14.5,14.5,0,0,0,3.65-10V35.46a14.54,14.54,0,0,0-3.65-10A12.25,12.25,0,0,0,468,21.37H437.22a13.4,13.4,0,0,0-9.89,4.08,13.72,13.72,0,0,0-4,10Z" transform="translate(11.34 149.57)"/><path class="cls-6" d="M1158.53,390.49a12.93,12.93,0,0,0,3.71,9.64,13.09,13.09,0,0,0,9.66,3.71h231a107.81,107.81,0,0,0,43.44-8.9,113.72,113.72,0,0,0,59.8-59.67,107,107,0,0,0,8.92-43.36,99,99,0,0,0-13.87-51.51,123.31,123.31,0,0,0-36.33-38.91A113.54,113.54,0,0,0,1493,167.4a90.06,90.06,0,0,0,10.9-43.74A99.22,99.22,0,0,0,1495.76,84a100.82,100.82,0,0,0-22.29-32.62,109,109,0,0,0-33-21.86,99.39,99.39,0,0,0-39.74-8.15H1171.9a12.45,12.45,0,0,0-9.66,4.08,14.24,14.24,0,0,0-3.71,10Zm236.61-318q23.65,0,39.53,15.57a50.93,50.93,0,0,1,15.9,37.79,53.92,53.92,0,0,1-14.46,37.43q-14.46,15.94-39.65,15.94h-126a12.71,12.71,0,0,0-13.35,13.35v22.23a12.68,12.68,0,0,0,13.35,13.33h132.67q28.14,0,43.35,18.91a67.32,67.32,0,0,1,15.19,43.36q0,26-18.1,44.11t-46.18,18.15H1215.6V72.52Z" transform="translate(11.34 149.57)"/></g><g class="cls-7"><rect class="cls-8" x="696.25" y="-45.24" width="511.71" height="515.77" transform="translate(100.55 817.36) rotate(-40.4)"/></g><g class="cls-2"><text class="cls-3" transform="translate(0 553.39)"><tspan class="cls-9">L</tspan><tspan x="181.44" y="0">e</tspan></text></g></svg>