<svg id="Calque_1" data-name="Calque 1" xmlns="http://www.w3.org/2000/svg" xmlns:xlink="http://www.w3.org/1999/xlink" viewBox="0 0 1535.76 921.11"><defs><style>.cls-1{fill:none;}.cls-2{clip-path:url(#clip-path);}.cls-10,.cls-3{font-size:339.33px;font-family:neo-latina, neo latina;}.cls-10,.cls-3,.cls-7{fill:#191915;}.cls-3{letter-spacing:-0.05em;}.cls-4{letter-spacing:-0.05em;}.cls-5{letter-spacing:-0.05em;}.cls-6{letter-spacing:0em;}.cls-8{clip-path:url(#clip-path-2);}.cls-9{fill:url(#Dégradé_sans_nom_2);}</style><clipPath id="clip-path" transform="translate(18.27 151.23)"><rect class="cls-1" x="-18.27" y="20.77" width="1535.75" height="674.8"/></clipPath><clipPath id="clip-path-2" transform="translate(18.27 151.23)"><path class="cls-1" d="M986.22,104h41.11V354.11H776.75l.49,51.45h267.24a40.72,40.72,0,0,0,41-41V104h39.94l-69.84-83.16Z"/></clipPath><linearGradient id="Dégradé_sans_nom_2" x1="-295.85" y1="1934.71" x2="-283.28" y2="1934.71" gradientTransform="matrix(-17.37, 0, 0, 17.37, -4058.52, -33398.11)" gradientUnits="userSpaceOnUse"><stop offset="0" stop-color="#25534f"/><stop offset="0.01" stop-color="#25534f"/><stop offset="0.99" stop-color="#191915"/><stop offset="1" stop-color="#191915"/></linearGradient></defs><g class="cls-2"><text class="cls-3" transform="translate(149.3 846.8)">Re<tspan class="cls-4" x="376.99" y="0">p</tspan><tspan class="cls-5" x="542.58" y="0">ort</tspan><tspan class="cls-6" x="1044.43" y="0">s</tspan></text><path class="cls-7" d="M769.09,405.56h17.64M520.46,216.14a12.78,12.78,0,0,0,13.42,13.43H751.64V391.4a13.59,13.59,0,0,0,4.15,10.07,13.08,13.08,0,0,0,9.45,4.09h29.47a13.89,13.89,0,0,0,10.19-4.09,13.56,13.56,0,0,0,4.16-10.07V34.93a13.57,13.57,0,0,0-4.16-10.07,14,14,0,0,0-10.19-4.1H765.24a13.17,13.17,0,0,0-9.45,4.1,13.6,13.6,0,0,0-4.15,10.07V178.12H533.88a12.51,12.51,0,0,0-9.69,4.09,14.43,14.43,0,0,0-3.73,10.07ZM419,391.4a13.77,13.77,0,0,0,4,10.07,13.39,13.39,0,0,0,9.94,4.09H464a12.25,12.25,0,0,0,9.57-4.09,14.58,14.58,0,0,0,3.67-10.07V34.93a14.6,14.6,0,0,0-3.67-10.07,12.32,12.32,0,0,0-9.57-4.1H433a13.48,13.48,0,0,0-9.94,4.1,13.79,13.79,0,0,0-4,10.07Z" transform="translate(18.27 151.23)"/><path class="cls-7" d="M1158.77,392.15a12.81,12.81,0,0,0,13.45,13.42h232.42a108.42,108.42,0,0,0,43.71-8.95,114.4,114.4,0,0,0,60.16-60,107.67,107.67,0,0,0,9-43.64,99.62,99.62,0,0,0-14-51.82A124.15,124.15,0,0,0,1467,202a114.22,114.22,0,0,0,28.35-34.3,90.52,90.52,0,0,0,11-44,99.7,99.7,0,0,0-8.23-39.89A101.5,101.5,0,0,0,1475.65,51a109.56,109.56,0,0,0-33.25-22,100.24,100.24,0,0,0-40-8.19H1172.22a12.54,12.54,0,0,0-9.71,4.1,14.37,14.37,0,0,0-3.74,10.06ZM1396.85,72.22q23.79,0,39.77,15.66a51.31,51.31,0,0,1,16,38,54.21,54.21,0,0,1-14.55,37.66q-14.55,16-39.9,16H1271.39A12.78,12.78,0,0,0,1258,193v22.38a12.76,12.76,0,0,0,13.42,13.41h133.49q28.32,0,43.62,19a67.76,67.76,0,0,1,15.28,43.63q0,26.11-18.21,44.37t-46.46,18.27H1216.2V72.22Z" transform="translate(18.27 151.23)"/></g><g class="cls-8"><rect class="cls-9" x="693.66" y="-46.26" width="514.86" height="518.94" transform="translate(106.89 818.49) rotate(-40.4)"/></g><g class="cls-2"><text class="cls-10" transform="translate(0 556.8)"><tspan class="cls-4">L</tspan><tspan x="182.56" y="0">e</tspan></text></g></svg>