<svg id="Calque_1" data-name="Calque 1" xmlns="http://www.w3.org/2000/svg" xmlns:xlink="http://www.w3.org/1999/xlink" viewBox="0 0 1738.7 922.02"><defs><style>.cls-1{fill:none;}.cls-2{clip-path:url(#clip-path);}.cls-3{font-size:339.66px;font-family:neo-latina, neo latina;}.cls-3,.cls-7{fill:#191915;}.cls-4{letter-spacing:-0.13em;}.cls-5{letter-spacing:-0.05em;}.cls-6{letter-spacing:-0.05em;}.cls-8{clip-path:url(#clip-path-2);}.cls-9{fill:url(#Dégradé_sans_nom_2);}</style><clipPath id="clip-path" transform="translate(22.65 149.7)"><rect class="cls-1" x="-22.65" y="22.46" width="1736.32" height="675.47"/></clipPath><clipPath id="clip-path-2" transform="translate(22.65 149.7)"><path class="cls-1" d="M1082.37,105.81h41.14V356.13H872.69l.49,51.5h267.5a40.75,40.75,0,0,0,41-41V105.81h40l-69.92-83.25Z"/></clipPath><linearGradient id="Dégradé_sans_nom_2" x1="-196.61" y1="1934.4" x2="-184.03" y2="1934.4" gradientTransform="matrix(-17.37, 0, 0, 17.37, -2238.15, -33390.84)" gradientUnits="userSpaceOnUse"><stop offset="0" stop-color="#c8301b"/><stop offset="0.01" stop-color="#c8301b"/><stop offset="0.99" stop-color="#191915"/><stop offset="1" stop-color="#191915"/></linearGradient></defs><g class="cls-2"><text class="cls-3" transform="translate(0 847.63)"><tspan class="cls-4">P</tspan><tspan class="cls-5" x="179" y="0">aram</tspan><tspan class="cls-6" x="911.29" y="0">e</tspan><tspan class="cls-5" x="1071.95" y="0">tr</tspan><tspan class="cls-6" x="1383.41" y="0">e</tspan><tspan x="1544.07" y="0">s</tspan></text><path d="M946.56,513.42c-2-.91-3.06-2.15-3.06-3.74l3.06-12.23q1.37-3.06,4.08-3.06l67.93,18a4,4,0,0,1,2.72,4.08q-1.69,6.1-5.1,9.17a15.1,15.1,0,0,1-8.15,3.74,12.17,12.17,0,0,1-3.4-.34Z" transform="translate(22.65 149.7)"/><path class="cls-7" d="M865,407.64h17.65M616.14,218a12.79,12.79,0,0,0,13.44,13.44h218v162a13.6,13.6,0,0,0,4.16,10.08,13.1,13.1,0,0,0,9.46,4.1h29.49a13.94,13.94,0,0,0,10.21-4.1A13.57,13.57,0,0,0,905,393.46V36.64a13.6,13.6,0,0,0-4.16-10.08,14,14,0,0,0-10.21-4.1H861.17a13.14,13.14,0,0,0-9.46,4.1,13.63,13.63,0,0,0-4.16,10.08V180h-218a12.49,12.49,0,0,0-9.7,4.1,14.44,14.44,0,0,0-3.74,10.08ZM514.63,393.46a13.74,13.74,0,0,0,4,10.08,13.41,13.41,0,0,0,10,4.1h31a12.28,12.28,0,0,0,9.58-4.1,14.59,14.59,0,0,0,3.68-10.08V36.64a14.63,14.63,0,0,0-3.68-10.08,12.31,12.31,0,0,0-9.58-4.1h-31a13.44,13.44,0,0,0-10,4.1,13.77,13.77,0,0,0-4,10.08Z" transform="translate(22.65 149.7)"/><path class="cls-7" d="M1255.09,394.21a13,13,0,0,0,3.73,9.7,13.18,13.18,0,0,0,9.73,3.74h232.64a108.58,108.58,0,0,0,43.75-9,114.53,114.53,0,0,0,60.22-60.09,107.71,107.71,0,0,0,9-43.68,99.75,99.75,0,0,0-14-51.88,124.15,124.15,0,0,0-36.59-39.18A114.53,114.53,0,0,0,1592,169.52a90.67,90.67,0,0,0,11-44.05,99.89,99.89,0,0,0-8.23-39.93,101.45,101.45,0,0,0-22.45-32.85,109.63,109.63,0,0,0-33.28-22,100.27,100.27,0,0,0-40-8.2H1268.55a12.57,12.57,0,0,0-9.73,4.1,14.39,14.39,0,0,0-3.73,10.08ZM1493.39,74q23.82,0,39.81,15.68a51.32,51.32,0,0,1,16,38.06,54.32,54.32,0,0,1-14.56,37.7q-14.57,16.05-39.94,16.05H1367.82a12.79,12.79,0,0,0-13.44,13.44v22.4a12.76,12.76,0,0,0,13.44,13.42h133.61q28.35,0,43.66,19a67.8,67.8,0,0,1,15.3,43.68q0,26.13-18.23,44.41t-46.5,18.29h-183.1V74Z" transform="translate(22.65 149.7)"/></g><g class="cls-8"><rect class="cls-9" x="789.52" y="-44.63" width="515.36" height="519.45" transform="translate(132.95 879.7) rotate(-40.4)"/></g><text class="cls-3" transform="translate(99.53 557.35)"><tspan class="cls-5">L</tspan><tspan x="183.08" y="0">e</tspan></text></svg>