<svg id="Calque_1" data-name="Calque 1" xmlns="http://www.w3.org/2000/svg" xmlns:xlink="http://www.w3.org/1999/xlink" viewBox="0 0 1537.69 922.27"><defs><style>.cls-1{fill:none;}.cls-2{clip-path:url(#clip-path);}.cls-3{font-size:339.76px;font-family:neo-latina, neo latina;}.cls-3,.cls-7{fill:#191915;}.cls-4{letter-spacing:-0.05em;}.cls-5{letter-spacing:-0.05em;}.cls-6{letter-spacing:-0.05em;}.cls-8{clip-path:url(#clip-path-2);}.cls-9{fill:url(#Dégradé_sans_nom_3);}.cls-10{letter-spacing:-0.05em;}</style><clipPath id="clip-path" transform="translate(23.86 153.28)"><rect class="cls-1" x="-23.86" y="18.93" width="1537.69" height="675.66"/></clipPath><clipPath id="clip-path-2" transform="translate(23.86 153.28)"><path class="cls-1" d="M981.91,102.31h41.15V352.7H772.17l.49,51.51h267.57a40.75,40.75,0,0,0,41.07-41V102.31h40L1051.36,19Z"/></clipPath><linearGradient id="Dégradé_sans_nom_3" x1="-295.73" y1="1934.48" x2="-283.15" y2="1934.48" gradientTransform="matrix(-17.37, 0, 0, 17.37, -4060.59, -33395.66)" gradientUnits="userSpaceOnUse"><stop offset="0" stop-color="#991b7e"/><stop offset="0.01" stop-color="#991b7e"/><stop offset="0.99" stop-color="#191915"/><stop offset="1" stop-color="#191915"/></linearGradient></defs><g class="cls-2"><text class="cls-3" transform="translate(209.44 847.87)"><tspan class="cls-4">Se</tspan><tspan class="cls-5" x="383.24" y="0">r</tspan><tspan class="cls-6" x="550.74" y="0">v</tspan><tspan class="cls-5" x="712.8" y="0">i</tspan><tspan class="cls-6" x="779.05" y="0">c</tspan><tspan x="942.47" y="0">e</tspan></text><path class="cls-7" d="M764.5,404.22h17.65M515.55,214.56A12.81,12.81,0,0,0,529,228H747V390a13.59,13.59,0,0,0,4.15,10.08,13.12,13.12,0,0,0,9.46,4.1h29.51a13.9,13.9,0,0,0,10.2-4.1A13.54,13.54,0,0,0,804.52,390V33.11A13.6,13.6,0,0,0,800.35,23a13.94,13.94,0,0,0-10.2-4.1H760.64a13.16,13.16,0,0,0-9.46,4.1A13.66,13.66,0,0,0,747,33.11V176.48H529a12.5,12.5,0,0,0-9.7,4.11,14.44,14.44,0,0,0-3.74,10.08ZM414,390a13.74,13.74,0,0,0,4.05,10.08,13.41,13.41,0,0,0,9.95,4.1h31a12.31,12.31,0,0,0,9.59-4.1A14.59,14.59,0,0,0,472.24,390V33.11A14.66,14.66,0,0,0,468.57,23a12.35,12.35,0,0,0-9.59-4.1H428a13.44,13.44,0,0,0-9.95,4.1A13.8,13.8,0,0,0,414,33.11Z" transform="translate(23.86 153.28)"/><path class="cls-7" d="M1154.67,390.79a12.82,12.82,0,0,0,13.47,13.44h232.71a108.63,108.63,0,0,0,43.76-9,114.58,114.58,0,0,0,60.24-60.12,107.71,107.71,0,0,0,9-43.68,99.82,99.82,0,0,0-14-51.9,124.35,124.35,0,0,0-36.61-39.19,114.46,114.46,0,0,0,28.4-34.35,90.71,90.71,0,0,0,11-44.06A99.76,99.76,0,0,0,1494.4,82,101.23,101.23,0,0,0,1472,49.17a109.83,109.83,0,0,0-33.29-22,100.35,100.35,0,0,0-40-8.2H1168.14a12.57,12.57,0,0,0-9.73,4.1,14.4,14.4,0,0,0-3.74,10.08ZM1393.05,70.45q23.82,0,39.82,15.68a51.36,51.36,0,0,1,16,38.08,54.32,54.32,0,0,1-14.56,37.71q-14.58,16.07-40,16.06H1267.43A12.79,12.79,0,0,0,1254,191.42v22.4a12.78,12.78,0,0,0,13.44,13.43h133.66q28.35,0,43.67,19.05A67.79,67.79,0,0,1,1460.07,290q0,26.14-18.24,44.43t-46.52,18.29H1212.17V70.45Z" transform="translate(23.86 153.28)"/></g><g class="cls-8"><rect class="cls-9" x="688.97" y="-48.18" width="515.51" height="519.6" transform="translate(112.46 817.34) rotate(-40.4)"/></g><g class="cls-2"><text class="cls-3" transform="translate(0 557.5)"><tspan class="cls-10">L</tspan><tspan x="182.79" y="0">e</tspan></text></g></svg>