<svg id="Calque_1" data-name="Calque 1" xmlns="http://www.w3.org/2000/svg" xmlns:xlink="http://www.w3.org/1999/xlink" viewBox="0 0 1544.69 733.15"><defs><style>.cls-1{fill:none;}.cls-2{clip-path:url(#clip-path);}.cls-3{clip-path:url(#clip-path-2);}.cls-4{fill:url(#Dégradé_sans_nom_2);}.cls-5{font-size:341.3px;fill:#191915;font-family:Test;letter-spacing:-0.05em;}.cls-6{letter-spacing:0em;}</style><clipPath id="clip-path" transform="translate(24.36 122.39)"><rect class="cls-1" x="-24.36" y="50.62" width="1544.69" height="387.04"/></clipPath><clipPath id="clip-path-2" transform="translate(24.36 122.39)"><path class="cls-1" d="M986,134.35h41.35V385.91h-252l.49,51.75h268.79a41,41,0,0,0,41.26-41.24V134.35H1126L1055.75,50.7Z"/></clipPath><linearGradient id="Dégradé_sans_nom_2" x1="-296.71" y1="1963.77" x2="-284.06" y2="1963.77" gradientTransform="matrix(-17.37, 0, 0, 17.37, -4072.98, -33871.95)" gradientUnits="userSpaceOnUse"><stop offset="0" stop-color="#4b8fcb"/><stop offset="0.01" stop-color="#4b8fcb"/><stop offset="0.99" stop-color="#191915"/><stop offset="1" stop-color="#191915"/></linearGradient></defs><g class="cls-2"><path d="M767.58,437.66h17.74M517.51,247.13a12.85,12.85,0,0,0,13.5,13.5H750V423.41a13.69,13.69,0,0,0,4.17,10.13,13.21,13.21,0,0,0,9.51,4.12h29.64a14,14,0,0,0,10.25-4.12,13.63,13.63,0,0,0,4.19-10.13V64.86a13.67,13.67,0,0,0-4.19-10.13,14,14,0,0,0-10.25-4.12H763.71a13.25,13.25,0,0,0-9.51,4.12A13.73,13.73,0,0,0,750,64.86v144H531a12.54,12.54,0,0,0-9.75,4.13,14.51,14.51,0,0,0-3.75,10.12Zm-102,176.28a13.83,13.83,0,0,0,4.07,10.13,13.5,13.5,0,0,0,10,4.12h31.1a12.37,12.37,0,0,0,9.64-4.12A14.68,14.68,0,0,0,474,423.41V64.86a14.73,14.73,0,0,0-3.69-10.13,12.4,12.4,0,0,0-9.64-4.12h-31.1a13.54,13.54,0,0,0-10,4.12,13.88,13.88,0,0,0-4.07,10.13Z" transform="translate(24.36 122.39)"/><path d="M1159.53,424.16a13.09,13.09,0,0,0,3.76,9.75,13.24,13.24,0,0,0,9.77,3.75h233.77a108.91,108.91,0,0,0,44-9,115,115,0,0,0,60.51-60.38,108.23,108.23,0,0,0,9-43.89,100.29,100.29,0,0,0-14-52.13,124.91,124.91,0,0,0-36.77-39.37,115,115,0,0,0,28.52-34.5,91.1,91.1,0,0,0,11-44.27,100.32,100.32,0,0,0-8.27-40.12,102,102,0,0,0-22.56-33,110.38,110.38,0,0,0-33.44-22.13,100.66,100.66,0,0,0-40.22-8.24H1173.06a12.64,12.64,0,0,0-9.77,4.12,14.45,14.45,0,0,0-3.76,10.13ZM1399,102.37q23.94,0,40,15.75a51.6,51.6,0,0,1,16.09,38.25,54.54,54.54,0,0,1-14.63,37.88q-14.64,16.14-40.13,16.13H1272.81a12.88,12.88,0,0,0-13.51,13.51v22.5a12.85,12.85,0,0,0,13.51,13.49h134.26q28.48,0,43.87,19.13a68.18,68.18,0,0,1,15.38,43.89q0,26.27-18.32,44.63t-46.73,18.37h-184V102.37Z" transform="translate(24.36 122.39)"/></g><g class="cls-3"><rect class="cls-4" x="691.71" y="-16.81" width="517.87" height="521.98" transform="translate(92.8 796.75) rotate(-40.4)"/></g><g class="cls-2"><text font-family="Test" class="cls-5" transform="translate(0 560.05)">L<tspan class="cls-6" x="183.62" y="0">e</tspan></text></g></svg>